<?xml version="1.0" encoding="utf-8"?>
<!-- Generator: Adobe Illustrator 27.0.0, SVG Export Plug-In . SVG Version: 6.00 Build 0)  -->
<svg version="1.1" id="Layer_1" xmlns="http://www.w3.org/2000/svg" xmlns:xlink="http://www.w3.org/1999/xlink" x="0px" y="0px"
	 viewBox="0 0 1537.7 1080" style="enable-background:new 0 0 1537.7 1080;" xml:space="preserve">
<style type="text/css">
	.st0{fill:#1D1D1B;}
</style>
<g>
	<path class="st0" d="M187.6,1077.9h263.9V548.2H187.6L187.6,1077.9z"/>
	<path class="st0" d="M748,1077.9h293L748,570.4V1077.9z"/>
	<path class="st0" d="M744.6,531.9h331.5L774.9,10.3L609.2,297.3L744.6,531.9z"/>
	<path class="st0" d="M473.8,531.9h252l-126-218.3L473.8,531.9z"/>
	<path class="st0" d="M18.4,2.1l161,278.9l161-278.9H18.4z"/>
	<path class="st0" d="M187.6,531.9h263.9V295.1l169.3-293H359.3L187.6,299.5L187.6,531.9z"/>
	<path class="st0" d="M753.9,548.2l145,251.2c67.9-20.4,106.4-91.9,86-159.8c-16.4-54.5-66.6-91.7-123.4-91.4H753.9z"/>
	<path class="st0" d="M467.8,548.2v529.7c145.6-0.5,263.9-119.1,263.9-264.9S613.4,548.7,467.8,548.2z"/>
	<path class="st0" d="M1247.8,548.2c-146.1,0-264.9,118.8-264.9,264.9s118.8,264.9,264.9,264.9s264.9-118.8,264.9-264.9
		S1393.9,548.2,1247.8,548.2z"/>
</g>
</svg>
